<svg width="145" height="36" viewBox="0 0 145 36" fill="none" xmlns="http://www.w3.org/2000/svg">
<path d="M27.2187 0V35.3H19.6135V32.9C17.9123 34.8 15.5107 36 12.1083 36C5.50379 36 0 30.2 0 22.7C0 15.2 5.50379 9.4 12.1083 9.4C15.5107 9.4 18.0124 10.6 19.6135 12.5V0H27.2187ZM19.6135 22.7C19.6135 18.9 17.1118 16.5 13.6094 16.5C10.107 16.5 7.60523 18.9 7.60523 22.7C7.60523 26.5 10.107 28.9 13.6094 28.9C17.1118 28.8 19.6135 26.5 19.6135 22.7Z" fill="#FFC700"/>
<path d="M43.7302 29.2C45.8316 29.2 47.5328 28.4 48.5335 27.3L54.6377 30.8C52.136 34.2 48.4334 36 43.6301 36C35.0242 36 29.6205 30.2 29.6205 22.7C29.6205 15.2 35.0242 9.40002 43.0297 9.40002C50.4348 9.40002 55.8385 15.1 55.8385 22.7C55.8385 23.8 55.7385 24.8 55.5383 25.7H37.626C38.6267 28.3 40.9283 29.2 43.7302 29.2ZM48.3334 20.1C47.5328 17.2 45.2312 16.1 42.9296 16.1C40.0276 16.1 38.1263 17.5 37.4259 20.1H48.3334Z" fill="#FFC700"/>
<path d="M82.1565 10.1L72.8501 35.3H64.2441L54.9377 10.1H63.3435L68.6472 26.1L73.9508 10.1C73.9508 10.1 82.1565 10.1 82.1565 10.1Z" fill="#FFC700"/>
<path d="M83.4574 10.1H91.0626V35.3H83.4574V10.1Z" fill="#FFC700"/>
<path d="M93.6646 22.7C93.6646 15.2 99.3685 9.40002 107.074 9.40002C111.977 9.40002 116.28 12 118.482 15.9L111.877 19.7C110.976 17.9 109.175 16.9 106.974 16.9C103.671 16.9 101.27 19.3 101.27 22.7C101.27 26.2 103.671 28.5 106.974 28.5C109.175 28.5 111.077 27.4 111.877 25.7L118.482 29.5C116.38 33.4 112.077 36 107.074 36C99.3685 36 93.6646 30.2 93.6646 22.7Z" fill="#FFC700"/>
<path d="M132.892 29.2C134.993 29.2 136.694 28.4 137.695 27.3L143.799 30.8C141.297 34.2 137.595 36 132.792 36C124.186 36 118.782 30.2 118.782 22.7C118.782 15.2 124.286 9.40002 132.191 9.40002C139.596 9.40002 145 15.1 145 22.7C145 23.8 144.9 24.8 144.7 25.7H126.787C127.788 28.3 130.09 29.2 132.892 29.2ZM137.595 20.1C136.794 17.2 134.493 16.1 132.191 16.1C129.289 16.1 127.388 17.5 126.687 20.1H137.595Z" fill="#FFC700"/>
</svg>
