<svg width="136" height="165" viewBox="0 0 136 165" fill="none" xmlns="http://www.w3.org/2000/svg">
<g clip-path="url(#clip0_30_641)">
<path d="M93.133 39.2669C101.254 39.2669 108.078 33.7249 110.033 26.2179L115.5 27.0319C115.607 27.0479 115.715 27.0559 115.82 27.0559C116.871 27.0559 117.791 26.2859 117.951 25.2159C118.127 24.0379 117.312 22.9399 116.135 22.7649L110.594 21.9399C110.596 21.8939 110.598 21.8489 110.598 21.8019C110.598 21.6199 110.592 21.4399 110.584 21.2599C110.584 21.2599 110.133 14.7419 109.51 12.0229C108.889 9.30394 106.975 8.72694 106.975 8.72694C97.205 6.51494 87.203 6.28894 84.6 6.28894C81.997 6.28894 81.442 7.62094 81.442 7.62094L78.292 12.6169L78.282 12.6139C78.206 12.7359 78.136 12.8589 78.063 12.9819L78.036 13.0249C76.534 15.6049 75.669 18.6009 75.669 21.8019C75.668 31.4479 83.488 39.2669 93.133 39.2669Z" fill="white"/>
<path d="M131.535 78.576V78.574L104.793 76.406L95.547 55.294C95.547 55.294 95.086 52.52 89.539 46.818C83.99 41.116 72.74 43.428 72.74 43.428C72.74 43.428 48.854 47.897 40.995 49.746C33.135 51.596 32.827 59.609 32.827 59.609L32.195 64.128L17.017 61.187C16.826 61.15 16.636 61.132 16.449 61.132C15.042 61.132 13.778 62.132 13.501 63.561L6.09001 101.803C5.77601 103.423 6.84401 105.005 8.46501 105.319L59.661 115.242C59.776 115.264 59.891 115.266 60.007 115.275H60.009C59.281 115.379 58.718 115.24 58.718 115.24L49.318 113.391L46.236 130.496L22.676 150.859C20.975 152.22 19.884 154.312 19.884 156.66C19.884 160.764 23.21 164.09 27.313 164.09C29.348 164.09 31.191 163.272 32.533 161.945C32.533 161.945 60.258 139.895 62.108 138.354C63.958 136.814 64.881 134.501 64.881 134.501C64.881 134.501 69.422 120.553 70.66 117.627C71.508 115.623 75.592 116.548 75.592 116.548L98.477 125.179L106.092 154.241C106.174 154.871 106.334 155.475 106.565 156.045H106.567C107.665 158.773 110.337 160.699 113.456 160.699C117.56 160.699 120.886 157.372 120.886 153.269C120.886 152.67 120.814 152.09 120.679 151.533C119.837 146.568 116.075 124.487 115.118 119.707C114.04 114.313 110.497 112.773 110.497 112.773C110.497 112.773 89.229 101.215 87.843 100.444C86.456 99.674 86.765 97.67 86.765 97.67L90.695 83.339L93.468 89.195C93.468 89.195 95.087 92.469 97.552 92.586L130.909 93.406C135.013 93.406 138.339 90.08 138.339 85.975C138.338 82.086 135.346 78.896 131.535 78.576ZM60.104 63.307L58.315 69.187L68.213 71.106L47.999 67.189L48.547 64.693L60.104 63.307ZM57.855 108.78L12.551 99.999L18.821 67.646L31.363 70.077L29.745 81.644L29.105 86.05C29.1 86.076 29.097 86.106 29.093 86.132L29.075 86.259H29.077C29.037 86.571 29.014 86.888 29.014 87.21C29.014 91.314 32.341 94.639 36.444 94.639C40.547 94.639 43.873 91.314 43.873 87.21C43.873 86.892 43.852 86.58 43.812 86.273L46.713 73.05L64.126 76.424L57.855 108.78Z" fill="white"/>
<path d="M25.0501 17.508H63.0771C64.1771 17.508 65.0771 16.612 65.0771 15.518C65.0771 14.424 64.1771 13.528 63.0771 13.528H25.0501C23.9501 13.528 23.0501 14.424 23.0501 15.518C23.0501 16.612 23.9501 17.508 25.0501 17.508Z" fill="white"/>
<path d="M38.0799 23.5249C36.9799 23.5249 36.0799 24.4209 36.0799 25.5149C36.0799 26.6089 36.9799 27.5049 38.0799 27.5049H61.0389C62.1389 27.5049 63.0389 26.6089 63.0389 25.5149C63.0389 24.4199 62.1389 23.5249 61.0389 23.5249H38.0799Z" fill="white"/>
<path d="M87.098 33.232C95.219 33.232 102.043 27.69 103.998 20.183L109.465 20.997C109.572 21.013 109.68 21.021 109.785 21.021C110.836 21.021 111.756 20.251 111.916 19.181C112.092 18.003 111.277 16.905 110.1 16.73L104.559 15.905C104.561 15.859 104.563 15.814 104.563 15.767C104.563 15.585 104.557 15.405 104.549 15.225C104.549 15.225 104.098 8.70703 103.475 5.98803C102.854 3.26903 100.94 2.69203 100.94 2.69203C91.17 0.480028 81.168 0.254028 78.564 0.254028C75.96 0.254028 75.406 1.58603 75.406 1.58603L72.256 6.58203L72.246 6.57903C72.17 6.70003 72.1 6.82403 72.027 6.94703L72 6.99003C70.498 9.57003 69.633 12.566 69.633 15.767C69.633 25.413 77.453 33.232 87.098 33.232Z" fill="#3A3A3A"/>
<path d="M125.5 72.5411V72.5391L98.758 70.3711L89.512 49.2591C89.512 49.2591 89.051 46.4851 83.504 40.7831C77.955 35.0811 66.705 37.3931 66.705 37.3931C66.705 37.3931 42.819 41.8621 34.96 43.7101C27.1 45.5601 26.792 53.5731 26.792 53.5731L23.71 75.6091L23.07 80.0151C23.065 80.0411 23.062 80.0711 23.058 80.0971L23.04 80.2241H23.042C23.002 80.5361 22.979 80.8531 22.979 81.1751C22.979 85.2791 26.306 88.6041 30.409 88.6041C34.512 88.6041 37.838 85.2791 37.838 81.1751C37.838 80.8571 37.817 80.5451 37.777 80.2381L42.511 58.6571L54.068 57.2711L52.279 63.1511L62.177 65.0701C63.797 65.3831 64.865 66.9661 64.552 68.5871L57.14 106.83C56.863 108.26 55.599 109.26 54.192 109.26C54.12 109.26 54.046 109.244 53.972 109.239C53.244 109.343 52.681 109.204 52.681 109.204L43.281 107.355L40.199 124.46L16.639 144.823C14.938 146.184 13.847 148.276 13.847 150.624C13.847 154.728 17.173 158.054 21.276 158.054C23.311 158.054 25.154 157.236 26.496 155.909C26.496 155.909 54.221 133.859 56.071 132.318C57.921 130.778 58.844 128.465 58.844 128.465C58.844 128.465 63.385 114.517 64.623 111.591C65.471 109.587 69.555 110.512 69.555 110.512L92.44 119.143L100.055 148.205C100.137 148.835 100.297 149.439 100.528 150.009H100.53C101.628 152.737 104.3 154.663 107.419 154.663C111.523 154.663 114.849 151.336 114.849 147.233C114.849 146.634 114.777 146.054 114.642 145.497C113.8 140.532 110.038 118.451 109.081 113.671C108.003 108.277 104.46 106.737 104.46 106.737C104.46 106.737 83.193 95.1821 81.807 94.4101C80.42 93.6401 80.729 91.6361 80.729 91.6361L84.659 77.3051L87.432 83.1611C87.432 83.1611 89.051 86.4351 91.516 86.5521L124.873 87.3721C128.977 87.3721 132.303 84.0461 132.303 79.9411C132.303 76.0511 129.311 72.8601 125.5 72.5411Z" fill="#3A3A3A"/>
<path d="M53.9708 109.644H53.9728C54.0458 109.65 54.1198 109.665 54.1928 109.665C55.5998 109.665 56.8638 108.665 57.1408 107.235L64.5528 68.992C64.8658 67.371 63.7978 65.789 62.1778 65.475L41.9638 61.558L40.6778 67.42L58.0908 70.794L51.8198 103.148L6.51579 94.369L12.7858 62.016L25.3278 64.447L26.1598 58.497L10.9818 55.555C10.7908 55.518 10.6008 55.5 10.4138 55.5C9.00679 55.5 7.74279 56.5 7.46579 57.929L0.0547894 96.173C-0.259211 97.793 0.808789 99.375 2.42979 99.689L53.6258 109.612C53.7398 109.634 53.8548 109.635 53.9708 109.644Z" fill="#F0C42E"/>
<path d="M59.0419 9.48194C59.0419 10.5769 58.1419 11.4719 57.0419 11.4719H19.0149C17.9149 11.4719 17.0149 10.5759 17.0149 9.48194C17.0149 8.38794 17.9149 7.49194 19.0149 7.49194H57.0419C58.1419 7.49294 59.0419 8.38794 59.0419 9.48194Z" fill="#F0C52E"/>
<path d="M57.004 19.48C57.004 20.574 56.104 21.47 55.004 21.47H32.044C30.944 21.47 30.044 20.574 30.044 19.48C30.044 18.385 30.944 17.49 32.044 17.49H55.003C56.104 17.49 57.004 18.386 57.004 19.48Z" fill="#F0C52E"/>
</g>
<defs>
<clipPath id="clip0_30_641">
<rect width="136" height="164" fill="white" transform="translate(0 0.5)"/>
</clipPath>
</defs>
</svg>
